<svg version="1.0" xmlns="http://www.w3.org/2000/svg"
 width="318pt" height="159pt" viewBox="0 0 318 159">
<g transform="translate(0, 159) scale(0.1,-0.1)" fill="#0000ff" stroke="none">
<path d="M0 793 l0 -796 29 40 c32 44 138 119 224 158 100 46 237 74 436 89
102 8 212 22 244 30 197 53 296 164 305 342 8 142 -43 253 -146 326 -97 67
-215 70 -287 7 -82 -72 -39 -195 72 -206 71 -7 100 -21 117 -58 20 -41 20 -56
1 -101 -20 -48 -88 -79 -157 -71 -107 13 -219 100 -275 216 -24 49 -28 68 -28
146 0 81 3 95 29 143 39 70 112 137 192 174 123 58 333 47 482 -24 78 -37 187
-137 246 -227 24 -36 70 -118 101 -181 81 -162 144 -256 222 -332 120 -116
251 -163 437 -156 127 4 191 27 264 92 232 210 135 598 -158 633 -134 16 -222
-92 -160 -195 24 -39 54 -52 121 -52 91 0 133 -71 93 -156 -26 -54 -74 -78
-155 -76 -89 1 -155 30 -214 93 -165 176 -114 470 99 574 64 31 163 50 336 64
165 14 195 18 290 41 162 41 304 119 380 210 l42 50 -1591 0 -1591 0 0 -797z"/>
</g>
</svg>
